<?xml version="1.0" encoding="UTF-8"?>
<svg version="1.1" viewBox="0 0 2000 5200" xmlns="http://www.w3.org/2000/svg">
<g transform="translate(4.7125 2.1053)">
<svg width="2e3" height="5200" data-background-color="#ffffff" viewBox="0 0 95 247" xmlns="http://www.w3.org/2000/svg" xmlns:xlink="http://www.w3.org/1999/xlink">
<g transform="translate(-.22384 -.1)">
<svg width="95.448" height="247.2" viewBox="0 0 95.4476857735053 247.2">
<svg width="95.448" height="247.2" viewBox="0 0 110.1340674626055 285.236265878259">
<svg width="110.13" height="285.24" viewBox="0 0 110.1340674626055 285.236265878259">
<svg width="110.13" height="285.24" viewBox="0 0 110.1340674626055 285.236265878259">
<svg width="110.13" height="245.67" viewBox="0 0 110.1340674626055 245.672304">
<rect width="110.13" height="245.67" fill="#a9a9a9" data-fill-palette-color="tertiary"/>
<g transform="translate(23.462 23.462)">
<svg width="63.211" height="198.75" data-palette-color="#ffffff" viewBox="1 -32.70000076293945 10.399999618530273 32.70000076293945">
<path class="undefined-text-0" d="m8.35-29.35-7.35 4.6v-3.45l7.35-4.5h3.05v32.7h-3.05v-29.35z" fill="#fff" data-fill-palette-color="quaternary"/>
</svg>
</g>
</svg>
<g transform="translate(0 257.4)">
<svg width="110.13" height="27.833" viewBox="0 0 110.1340674626055 27.833109362259027">
<g>
<svg width="110.13" height="27.833" data-palette-color="#949494" viewBox="1.7000000476837158 -35.5 142.4300079345703 36">
<path class="undefined-text-1" d="m9.8 0.5q-3.95 0-6.02-2.25-2.08-2.25-2.08-6.35v-18.8q0-4.1 2.08-6.35 2.07-2.25 6.02-2.25t6.03 2.25q2.07 2.25 2.07 6.35v3.7h-5.2v-4.05q0-3.25-2.75-3.25t-2.75 3.25v19.55q0 3.2 2.75 3.2t2.75-3.2v-5.35h5.2v4.95q0 4.1-2.07 6.35-2.08 2.25-6.03 2.25zm11.4-0.5v-35h5.5v30h9.05v5h-14.55zm24.94 0.5q-4.05 0-6.2-2.3t-2.15-6.5v-18.4q0-4.2 2.15-6.5t6.2-2.3 6.2 2.3 2.15 6.5v18.4q0 4.2-2.15 6.5t-6.2 2.3zm0-5q2.85 0 2.85-3.45v-19.1q0-3.45-2.85-3.45t-2.85 3.45v19.1q0 3.45 2.85 3.45zm16.15 4.5v-30h-5.75v-5h17v5h-5.75v30h-5.5zm13.9 0v-35h5.5v14.25h5.9v-14.25h5.5v35h-5.5v-15.75h-5.9v15.75h-5.5zm21 0v-35h5.5v35h-5.5zm9.6 0v-35h6.9l5.35 20.95h0.1v-20.95h4.9v35h-5.65l-6.6-25.55h-0.1v25.55h-4.9zm29.14 0.5q-4 0-6.1-2.28-2.1-2.27-2.1-6.52v-18.4q0-4.25 2.1-6.53 2.1-2.27 6.1-2.27t6.1 2.27q2.1 2.28 2.1 6.53v3h-5.2v-3.35q0-3.45-2.85-3.45t-2.85 3.45v19.15q0 3.4 2.85 3.4t2.85-3.4v-6.85h-2.75v-5h7.95v11.45q0 4.25-2.1 6.52-2.1 2.28-6.1 2.28z" fill="#949494" data-fill-palette-color="secondary"/>
</svg>
</g>
</svg>
</g>
</svg>
</svg>
</svg>
</svg>
<rect width="95.448" height="247.2" fill="none" visibility="hidden"/>
</g>
</svg>
</g>
</svg>
